# xmcd CD database file
#
# Track frame offsets:
#	150
#	14580
#	32850
#	47454
#	64588
#	78131
#	94971
#	113183
#	131255
#	147124
#	165321
#	181764
#	201398
#	216594
#
# Disc length: 3140 seconds
#
# Revision: 1
# Processed by: cddbd v1.5.2PL0 Copyright (c) Steve Scherf et al.
# Submitted via: CDex 1.51
#
DISCID=bc0c420e
DTITLE=Katie Melua - Pictures
DYEAR=2007
DGENRE=Jazz
TTITLE0=Mary Pickford
TTITLE1=It's All In My Head
TTITLE2=If The Lights Go Out
TTITLE3=What I Miss About You
TTITLE4=Spellbound
TTITLE5=What It Says On The Tin
TTITLE6=Scary Films
TTITLE7=Perfect Circle
TTITLE8=Ghost Town
TTITLE9=If You Were A Sailboat
TTITLE10=Dirty Dice
TTITLE11=In My Secret Life
TTITLE12=When You Taught Me How To Dance
TTITLE13=The Closest Thing To Crazy (Acoustic)
EXTD=YEAR: 2007
EXTT0=
EXTT1=
EXTT2=
EXTT3=
EXTT4=
EXTT5=
EXTT6=
EXTT7=
EXTT8=
EXTT9=
EXTT10=
EXTT11=
EXTT12=
EXTT13=
PLAYORDER=
